<svg width="64" height="64" viewBox="0 0 64 64" fill="none" xmlns="http://www.w3.org/2000/svg">
  <rect x="3" y="3" width="58" height="58" rx="15" fill="#111113"/>
  <rect x="3" y="3" width="58" height="58" rx="15" stroke="#3F3F46" stroke-width="3"/>
  <path d="M22 20V43" stroke="#10B981" stroke-width="3" stroke-linecap="round"/>
  <rect x="18" y="27" width="8" height="11" rx="2.5" fill="#10B981"/>
  <path d="M33 17V44" stroke="#F8FAFC" stroke-width="3" stroke-linecap="round"/>
  <rect x="29" y="24" width="8" height="15" rx="2.5" fill="#F8FAFC"/>
  <path d="M44 18V42" stroke="#F97316" stroke-width="3" stroke-linecap="round"/>
  <rect x="40" y="23" width="8" height="10" rx="2.5" fill="#F97316"/>
  <polyline points="14 42 25 31 31 35 40 22 50 17" fill="none" stroke="#050505" stroke-width="7" stroke-linecap="round" stroke-linejoin="round"/>
  <polyline points="14 42 25 31 31 35 40 22 50 17" fill="none" stroke="#FAFAFA" stroke-width="4.2" stroke-linecap="round" stroke-linejoin="round"/>
  <polyline points="14 42 25 31 35 35 40 22 50 17" fill="none" stroke="#F97316" stroke-width="1.8" stroke-linecap="round" stroke-linejoin="round"/>
  <circle cx="48" cy="19" r="3.8" fill="#09090B" stroke="#F97316" stroke-width="2"/>
</svg>
