<svg width="1100" height="280" viewBox="0 0 1100 280" fill="none" xmlns="http://www.w3.org/2000/svg" role="img" aria-labelledby="title desc">
  <title id="title">TradingHub Wordmark</title>
  <desc id="desc">TradingHub wordmark with the market heat logo mark.</desc>
  <defs>
    <linearGradient id="surface" x1="34" y1="24" x2="238" y2="246" gradientUnits="userSpaceOnUse">
      <stop stop-color="#202022"/>
      <stop offset="1" stop-color="#050505"/>
    </linearGradient>
    <linearGradient id="heat" x1="86" y1="188" x2="200" y2="76" gradientUnits="userSpaceOnUse">
      <stop stop-color="#10B981"/>
      <stop offset="0.56" stop-color="#F59E0B"/>
      <stop offset="1" stop-color="#F97316"/>
    </linearGradient>
  </defs>
  <rect x="28" y="28" width="224" height="224" rx="54" fill="url(#surface)" stroke="#3F3F46" stroke-width="10"/>
  <path d="M104 90V190" stroke="#10B981" stroke-width="9" stroke-linecap="round"/>
  <rect x="91" y="118" width="26" height="48" rx="7" fill="#10B981"/>
  <path d="M148 78V194" stroke="#E4E4E7" stroke-width="9" stroke-linecap="round"/>
  <rect x="135" y="102" width="26" height="68" rx="7" fill="#F8FAFC"/>
  <path d="M192 84V190" stroke="#F97316" stroke-width="9" stroke-linecap="round"/>
  <rect x="179" y="100" width="26" height="44" rx="7" fill="#F97316"/>
  <polyline points="76 184 112 148 136 164 172 114 210 96" fill="none" stroke="#050505" stroke-width="20" stroke-linecap="round" stroke-linejoin="round"/>
  <polyline points="76 184 112 148 136 164 172 114 210 96" fill="none" stroke="#FAFAFA" stroke-width="12" stroke-linecap="round" stroke-linejoin="round"/>
  <polyline points="76 184 112 148 136 164 172 114 210 96" fill="none" stroke="url(#heat)" stroke-width="6" stroke-linecap="round" stroke-linejoin="round"/>
  <circle cx="202" cy="100" r="13" fill="#09090B" stroke="#F97316" stroke-width="7"/>
  <path d="M84 216H196" stroke="#FAFAFA" stroke-width="10" stroke-linecap="round"/>
  <path d="M206 216H214" stroke="#F97316" stroke-width="10" stroke-linecap="round"/>
  <text x="304" y="150" font-family="Inter, ui-sans-serif, system-ui, -apple-system, BlinkMacSystemFont, Segoe UI, sans-serif" font-size="92" font-weight="740" letter-spacing="0" fill="#FAFAFA">Trading</text>
  <text x="690" y="150" font-family="Inter, ui-sans-serif, system-ui, -apple-system, BlinkMacSystemFont, Segoe UI, sans-serif" font-size="92" font-weight="740" letter-spacing="0" fill="#A1A1AA">Hub</text>
  <text x="308" y="202" font-family="Inter, ui-sans-serif, system-ui, -apple-system, BlinkMacSystemFont, Segoe UI, sans-serif" font-size="28" font-weight="560" letter-spacing="4" fill="#71717A">HEAT MAPS · SCANNER · JOURNAL</text>
</svg>
